<?xml version="1.0" encoding="UTF-8"?>
<svg id="Layer_2" data-name="Layer 2" xmlns="http://www.w3.org/2000/svg" viewBox="0 0 3346.38 652.47">
  <defs>
    <style>
      .cls-1 {
        fill: #05fe79;
      }

      .cls-2 {
        fill: #04fe79;
      }

      .cls-3 {
        fill: #07fe7a;
      }
    </style>
  </defs>
  <g id="Layer_1-2" data-name="Layer 1">
    <g>
      <path class="cls-2" d="M506.63,415.29c7.14,94.06-83.74,117.48-190.38,121.19-97.35,3.38-268.81-.4-268.81-.4,0,0-46.97-17.19-47-43.5L0,117.72l382,3.91c59.85.61,104.53,42.4,104.54,93.46.01,55.35-36.44,89.37-96.94,99.95,66.19,13.15,112.66,42.76,117.03,100.24ZM339.62,285.55c30.81-.44,46.91-31.8,43.23-52.55-3.63-20.46-26.87-35.6-50.86-35.77l-221.52-1.62c-4.13,33.98-4.55,60.24-1.49,93.25l230.64-3.31ZM341.48,454.58c33.34-.44,53.99-23.16,52.9-49.08-.9-21.33-22.89-47.66-50.88-48.18l-229.86-4.31c-10.81,33.62-10.83,71.59.15,104.55l227.69-2.98Z"/>
      <path class="cls-3" d="M961.98,536.09l-87.61-143.59-181.07.19,1.35,142.51-108.64-.32-.11-417.95,340.39,3.38c53.84.53,104.73,23.88,133.95,64.44,38.22,76.8-3.73,156.3-85.55,188.46l105.39,162.89h-118.11ZM905.53,319.21c42.2-1.15,62.67-41.74,59.19-71.23-3.77-31.92-33.94-50.3-69.54-50.7l-200.6-2.23c-1.93,47.48-2.08,85.6-.8,129.94l211.75-5.78Z"/>
      <path class="cls-1" d="M3199.91,521.59c-98.43,31.17-202.99,30.22-297.28-.08-91.57-29.43-145.61-103.14-146.94-191.85-1.38-92.16,52.85-168.32,146.98-198.26,94.48-30.06,198.59-30.13,293.41-1.06,92.65,28.41,149.33,101.96,150.29,192.26.96,90.57-50.71,168.68-146.45,198.99ZM3149.34,449.92c58.52-22.85,87.6-72.18,86.67-127-.91-53.78-33.43-100.59-89.11-120.96-60.7-22.21-128.18-22.46-189.48-1.42-59.1,20.28-93.27,71.29-91.93,128.63,1.3,55.95,34.71,103.64,92.05,123.39,60.67,20.89,128.83,21.95,191.81-2.64Z"/>
      <path class="cls-2" d="M2668.2,357.43l-302.27-2.27c-3.76,34.96-3.55,65.31.98,101.7l334.1-2.1c4.01,27.78,3.64,55.71-3.02,79.58l-392.72-.6c-25.01.86-47.45-14.99-47.45-41.06l-.08-375,429.45,1.8c18.85,1.22,15.24,65.91,6.92,78.12l-326.94-1.81c-3.6,33.59-4.28,63.05-2.2,90.84l299.78-.47c17.1-.03,14.76,59.12,3.45,71.27Z"/>
      <path class="cls-1" d="M1408.97,192.24l-167.13,339.82c-42.13,3.15-79.17,2.97-120.74-.07l203.37-385.57c17.82-33.79,66.48-39.13,98.15-36.85,33.68,2.43,67.32,20.55,87.76,53.17l304.35,485.77c-44.72,5.75-81.76,5.32-121.29-1.86l-284.46-454.42Z"/>
      <path class="cls-1" d="M2075.1,121.54c39.7-6.09,79.67-5.09,120.87-.34l-203.07,384.94c-17.89,33.91-67.46,38.96-98.59,36.37-34.48-2.87-67.25-21.64-87.83-54.49L1502.52,2.9c43.89-4.37,80.59-3.92,121.39,2.17l285.46,455.8,165.73-339.33Z"/>
    </g>
  </g>
</svg>